PathFileType	4	(X/Y/Z)	2014001\dynamic\2014001_C1_02.trc
DataRate	CameraRate	NumFrames	NumMarkers	Units	OrigDataRate	OrigDataStartFrame	OrigNumFrames
100.000000	100.000000	4	52	mm	100.000000	0	426
Frame#	Time	L_IAS			L_IPS			R_IPS			R_IAS			L_FTC			L_FLE			L_FME			L_FAX			L_TTC			L_FAL			L_TAM			L_FCC			L_FM1			L_FM2			L_FM5			R_FTC			R_FLE			R_FME			R_FAX			R_TTC			R_FAL			R_TAM			R_FCC			R_FM1			R_FM2			R_FM5			CV7			TV10			SXS			SJN			L_SIA			L_SRS			L_SAA			L_SAE			L_HLE			L_HME			L_UOA			L_RSP			L_UHE			L_HM2			L_HM5			R_SIA			R_SRS			R_SAA			R_SAE			R_HLE			R_HME			R_UOA			R_RSP			R_UHE			R_HM2			R_HM5			
		X1	Y1	Z1	X2	Y2	Z2	X3	Y3	Z3	X4	Y4	Z4	X5	Y5	Z5	X6	Y6	Z6	X7	Y7	Z7	X8	Y8	Z8	X9	Y9	Z9	X10	Y10	Z10	X11	Y11	Z11	X12	Y12	Z12	X13	Y13	Z13	X14	Y14	Z14	X15	Y15	Z15	X16	Y16	Z16	X17	Y17	Z17	X18	Y18	Z18	X19	Y19	Z19	X20	Y20	Z20	X21	Y21	Z21	X22	Y22	Z22	X23	Y23	Z23	X24	Y24	Z24	X25	Y25	Z25	X26	Y26	Z26	X27	Y27	Z27	X28	Y28	Z28	X29	Y29	Z29	X30	Y30	Z30	X31	Y31	Z31	X32	Y32	Z32	X33	Y33	Z33	X34	Y34	Z34	X35	Y35	Z35	X36	Y36	Z36	X37	Y37	Z37	X38	Y38	Z38	X39	Y39	Z39	X40	Y40	Z40	X41	Y41	Z41	X42	Y42	Z42	X43	Y43	Z43	X44	Y44	Z44	X45	Y45	Z45	X46	Y46	Z46	X47	Y47	Z47	X48	Y48	Z48	X49	Y49	Z49	X50	Y50	Z50	X51	Y51	Z51	X52	Y52	Z52	

1	0	308.4307250976564	868.518676757813	-50.32485198974612	236.5890350341798	897.218383789063	-231.1817321777345	148.0970306396485	893.1098632812505	-232.9184722900392	68.15277862548831	858.764282226563	-58.24354171752933	373.8189086914064	785.6907348632817	-113.7396087646485	361.075897216797	450.3800048828127	9.085405349731449	246.8845977783204	445.7209777832034	42.20123672485353	367.221405029297	385.7989501953127	10.60631179809571	327.7188110351564	390.6114807128909	80.75923919677737	346.4291076660157	76.66448974609378	110.0820770263672	262.1455383300782	97.95450592041021	141.9827423095704	296.9953613281251	20.78347396850587	93.31750488281253	293.6244201660157	99.00568389892584	256.8863220214845	353.0092773437501	103.4052658081055	253.5496063232423	384.8013000488284	66.33364868164065	214.6194915771486	20.35953330993653	765.8235473632815	-160.8643798828126	75.31520080566409	420.8987731933596	-199.5110015869142	195.1860504150392	412.7748718261721	-189.9157714843751	75.318473815918	357.9332885742189	-231.0358734130861	129.142318725586	341.2770080566407	-174.6653442382813	136.5186767578126	69.35012054443362	-349.2899169921876	222.4944458007814	80.48287200927737	-310.2702636718751	194.4127960205079	31.8546772003174	-395.1222229003909	201.9667510986329	19.54332160949708	-210.3391265869142	139.051742553711	32.60354614257814	-204.4548339843751	94.69695281982425	21.10372352600098	-267.6008300781251	196.8401794433595	1364.689331054688	-187.9165802001954	193.4908905029298	1135.178955078125	-259.3472595214845	196.5653839111329	1130.798950195313	-26.18801879882814	200.0490722656251	1294.267333984375	-63.39924240112308	286.8418884277345	1171.005249023438	-263.8045349121095	283.5963134765626	1300.98486328125	-237.8023376464845	392.2374572753909	1290.201171875	-164.8514251708985	379.1463623046876	1299.947387695313	-123.1524047851563	437.7735900878909	1015.639953613282	-185.4689941406251	358.6658020019532	988.995239257813	-202.1269531250001	405.5609130859377	985.9282836914067	-216.1434478759767	403.8330078125002	782.6823730468755	-95.34082794189456	464.5335693359377	779.722534179688	-151.0909271240235	413.7212524414065	700.455505371094	-69.79530334472659	462.7848205566409	701.019226074219	-159.5210571289063	78.62266540527347	1179.576416015625	-259.8853454589845	104.7830123901368	1301.361938476563	-229.0809020996095	2.910465478897096	1297.4638671875	-146.9962921142579	16.34743881225587	1299.89306640625	-99.45558929443365	-62.26063156127933	999.700561523438	-151.9113922119141	10.66843986511231	984.0380249023442	-186.7931060791016	-35.61727142333986	978.166381835938	-187.1635131835938	-29.96958923339845	788.4384155273442	-63.67891311645511	-95.56575775146487	789.069946289063	-112.5965805053712	-46.94339752197267	698.494812011719	-36.12272262573244	-97.48657226562506	710.3936767578127	-124.1096801757813	
2	0.01	309.4194946289064	867.6315307617192	-45.73149871826173	238.2182006835939	896.8683471679692	-226.7492523193361	149.7372131347657	892.9674682617192	-228.7877197265626	69.16007995605472	858.212524414063	-54.49621963500979	374.8268432617189	784.782592773438	-109.2316284179688	361.3774414062501	448.7933654785159	11.70490455627442	247.2500610351564	443.9873657226565	44.41068649291994	367.3894042968751	384.3133544921877	12.93921661376954	327.6804199218751	388.6211853027346	83.05796813964847	345.9217834472657	74.65785980224612	110.5743789672852	261.4226989746095	95.52253723144534	141.9381103515626	296.4706420898439	19.03865623474122	93.14894866943362	292.5144653320314	95.94032287597659	257.3952026367189	351.8716430664064	100.3217544555665	254.3117523193361	383.8330383300782	63.49915313720706	215.2120361328126	21.48547172546387	765.9566040039065	-157.6939392089844	75.67032623291018	421.0595397949221	-197.8577423095704	195.4851074218751	412.5625000000002	-187.964584350586	75.59169769287112	358.2695617675782	-229.6631011962892	129.1673278808594	341.2654113769532	-173.1384582519532	136.3573303222657	70.00728607177737	-349.1102294921876	222.2629394531251	80.86971282958987	-309.9227294921876	194.2416076660157	32.72815322875978	-395.0396728515627	201.8703460693361	19.59694290161134	-210.3545532226564	138.9464263916016	32.57169342041017	-204.4259796142579	94.60182952880862	21.05668830871583	-267.5777893066407	198.6121520996095	1364.242431640625	-183.3102111816407	195.3597259521486	1134.826049804688	-254.7860717773439	197.888641357422	1130.319213867188	-21.639066696167	201.5224456787111	1293.81884765625	-58.74575424194339	288.7563476562501	1170.568115234375	-258.9386596679689	285.497283935547	1300.546020507813	-232.9409332275392	393.9598388671877	1289.740356445313	-159.6905059814454	380.7406311035157	1299.456176757813	-117.9916534423829	439.6780395507815	1015.198547363282	-180.0776977539063	360.6520385742189	988.5333862304692	-197.1522827148439	407.6360473632815	985.4677124023442	-210.9231262207032	405.2548522949221	782.2467651367192	-90.1557540893555	466.2137145996096	779.215454101563	-145.5135803222657	414.9388122558596	699.9443359375002	-64.59477233886722	464.4940490722659	700.5714111328127	-153.9682159423829	80.47172546386722	1179.313354492188	-255.7393951416017	106.6319885253907	1300.940307617188	-224.5479888916017	4.562026977539064	1297.07568359375	-142.7453002929688	17.91197013854981	1299.487670898438	-95.21860504150393	-60.71979904174808	999.365844726563	-147.9709472656251	12.28055477142335	983.6896972656255	-182.7032470703126	-34.02080535888673	977.8196411132817	-183.1600952148438	-28.83643531799318	787.9789428710942	-59.92607879638675	-94.32673645019534	788.7582397460942	-108.9992370605469	-46.00175857543947	698.0389404296877	-32.51378250122072	-96.28919219970709	710.088317871094	-120.6183090209962	
3	0.02	310.4444580078126	866.7759399414067	-40.98071289062501	239.9362945556642	896.5502929687505	-222.1854400634767	151.4698791503907	892.8454589843755	-224.5465545654298	70.2065124511719	857.6767578125005	-50.65626907348636	375.8798828125001	783.9020385742192	-104.6205825805665	361.7459716796876	447.1760864257815	14.29076194763184	247.6220092773439	442.1458740234377	46.49525451660158	367.627655029297	382.8360595703126	15.212553024292	327.6312866210939	386.5434570312502	85.29267883300784	345.478240966797	72.62151336669925	110.7993316650391	260.7377319335939	92.99500274658206	141.6075592041016	296.0085754394532	17.35673713684083	92.53910827636722	291.3781127929689	92.55838775634768	257.6599121093751	350.710418701172	96.92276763916021	254.865692138672	382.8405761718751	60.41337966918948	215.5316009521486	22.68616104125977	766.113708496094	-154.4520416259766	76.05252075195315	421.2554626464846	-196.1264801025392	195.8067321777345	412.3674316406252	-185.9038543701172	75.88613128662112	358.6509704589845	-228.2215881347657	129.2177429199219	341.2591247558595	-171.5763854980469	136.1787719726563	70.71573638916018	-348.9114685058595	222.0070343017579	81.30525970458987	-309.5426330566407	194.0512542724611	33.67080688476564	-394.9321594238284	201.7698516845704	19.65634918212891	-210.3681640625001	138.8343811035157	32.54335784912111	-204.3906707763673	94.50115203857425	21.00671195983887	-267.5490112304689	200.4383850097657	1363.823974609375	-178.6085357666016	197.2882690429689	1134.49365234375	-250.118133544922	199.2564849853517	1129.862182617188	-16.99547386169434	203.0407714843751	1293.390258789063	-53.9975509643555	290.7159118652345	1170.146240234375	-253.9698486328126	287.4500122070314	1300.11865234375	-227.9683837890626	395.7331848144534	1289.293334960938	-154.4214477539063	382.386688232422	1298.988403320313	-112.743637084961	441.6541442871096	1014.773803710938	-174.5769958496094	362.7153320312501	988.0949096679692	-192.1138153076173	409.7976989746096	985.022094726563	-205.5991516113282	406.7283630371096	781.8215942382817	-84.90664672851565	467.9474182128909	778.732788085938	-139.8210449218751	416.2227172851565	699.4687500000002	-59.26767349243167	466.2642822265627	700.137390136719	-148.2900085449219	82.375846862793	1179.079345703125	-251.5462951660157	108.5351028442383	1300.53759765625	-219.9089202880861	6.265858650207523	1296.71728515625	-138.4187774658204	19.52280807495118	1299.1064453125	-90.89748382568362	-59.12383270263675	999.042602539063	-143.9416046142579	13.94096279144288	983.3600463867192	-178.5356750488282	-32.37830352783205	977.4705200195317	-179.0598907470704	-27.59418869018556	787.5566406250005	-56.05767822265628	-92.9838790893555	788.4545898437505	-105.2742462158204	-44.92583084106447	697.6214599609377	-28.75917434692384	-94.97375488281253	709.7897949218752	-116.981674194336	
4	0.03	311.5083007812501	865.969116210938	-36.07390594482423	241.7396545410157	896.279663085938	-217.4901275634767	153.2915954589844	892.7542114257817	-220.1917266845704	71.2964782714844	857.1706542968755	-46.7180519104004	376.9764404296876	783.0585937500005	-99.9152450561524	362.1871948242189	445.5556335449221	16.84129142761231	247.9934692382814	440.2301025390627	48.439567565918	367.9476928710939	381.3932495117189	17.44188880920411	327.5762634277345	384.4304809570315	87.475212097168	345.125213623047	70.62780761718753	110.9081115722657	260.1301879882814	90.47766876220706	141.1705322265626	295.6240844726564	15.823392868042	91.65254211425784	290.254119873047	88.9433517456055	257.8327941894532	349.5742797851564	93.27805328369143	255.3618927001954	381.8588867187501	57.14234542846683	215.7247924804689	23.96200752258301	766.2927856445315	-151.1230621337891	76.46549224853518	421.4929809570315	-194.3026275634767	196.1554718017579	412.1944885253909	-183.7234954833985	76.20557403564456	359.0823059082032	-226.7005462646486	129.3042907714844	341.2515258789064	-169.9768218994141	135.9843292236329	71.48176574707034	-348.6870117187501	221.7291870117189	81.80002593994143	-309.1265258789064	193.8432769775392	34.69339752197267	-394.7967224121096	201.6655578613282	19.72332191467286	-210.3768615722657	138.7168426513672	32.51885986328126	-204.3484954833986	94.39773559570315	20.95432281494141	-267.5139160156251	202.3150939941407	1363.444091796875	-173.8114624023438	199.2721405029298	1134.18994140625	-245.3426971435548	200.6718597412111	1129.43798828125	-12.25876426696778	204.6035614013673	1292.9921875	-49.15699386596683	292.7166137695314	1169.749755859375	-248.8997650146486	289.4510498046876	1299.714599609375	-222.8873443603517	397.5556335449221	1288.871215820313	-149.0491485595704	384.0822753906252	1298.552978515625	-107.4093933105469	443.6977844238284	1014.375427246094	-168.967025756836	364.8497619628907	987.6914672851567	-187.0144958496094	412.0406494140627	984.600952148438	-200.1703491210939	408.2508850097659	781.4076538085942	-79.60086059570315	469.7287292480471	778.285278320313	-134.0129852294922	417.5588378906252	699.0383911132815	-53.81653976440433	468.0908203125002	699.7269287109377	-142.4844207763672	84.33563232421878	1178.880493164063	-247.2989349365236	110.4906082153321	1300.16748046875	-215.1710662841798	8.020758628845218	1296.396240234375	-134.0181274414063	21.1782627105713	1298.75634765625	-86.49146270751956	-57.4692077636719	998.737670898438	-139.8226928710938	15.65457344055176	983.0558471679692	-174.2872619628907	-30.68397712707521	977.1284179687505	-174.863265991211	-26.24332809448244	787.177368164063	-52.07386398315433	-91.536247253418	788.165649414063	-101.4236755371094	-43.71967697143556	697.2483520507815	-24.86061096191408	-93.5400085449219	709.5047607421877	-113.2017898559571	
